<mxfile host="app.diagrams.net" agent="Mozilla/5.0 (X11; Linux x86_64; rv:134.0) Gecko/20100101 Firefox/134.0" version="25.0.3">
  <diagram name="Page-1" id="hnBLyXOFqfx6lhBzSeLp">
    <mxGraphModel dx="1872" dy="1011" grid="1" gridSize="10" guides="1" tooltips="1" connect="1" arrows="1" fold="1" page="1" pageScale="1" pageWidth="2520" pageHeight="1440" math="0" shadow="0">
      <root>
        <mxCell id="0" />
        <mxCell id="1" parent="0" />
        <mxCell id="niYCIoyhiS-1OoNlzdVk-216" value="" style="rounded=0;whiteSpace=wrap;html=1;labelBackgroundColor=none;fillColor=#EDD6BE;strokeColor=none;" parent="1" vertex="1">
          <mxGeometry x="40" y="1120" width="600" height="280" as="geometry" />
        </mxCell>
        <mxCell id="niYCIoyhiS-1OoNlzdVk-204" value="" style="rounded=0;whiteSpace=wrap;html=1;labelBackgroundColor=none;fillColor=#C7D3E6;strokeColor=none;" parent="1" vertex="1">
          <mxGeometry x="1000" y="120" width="520" height="1280" as="geometry" />
        </mxCell>
        <mxCell id="niYCIoyhiS-1OoNlzdVk-203" value="" style="rounded=0;whiteSpace=wrap;html=1;labelBackgroundColor=none;fillColor=#B5C1D1;strokeColor=none;fillStyle=solid;" parent="1" vertex="1">
          <mxGeometry x="1520" y="120" width="360" height="1280" as="geometry" />
        </mxCell>
        <mxCell id="niYCIoyhiS-1OoNlzdVk-202" value="" style="rounded=0;whiteSpace=wrap;html=1;labelBackgroundColor=none;fillColor=#dae8fc;strokeColor=none;fillStyle=solid;" parent="1" vertex="1">
          <mxGeometry x="640" y="120" width="360" height="1280" as="geometry" />
        </mxCell>
        <mxCell id="niYCIoyhiS-1OoNlzdVk-201" value="" style="rounded=0;whiteSpace=wrap;html=1;labelBackgroundColor=none;fillColor=#ffe6cc;strokeColor=none;" parent="1" vertex="1">
          <mxGeometry x="320" y="120" width="320" height="1000" as="geometry" />
        </mxCell>
        <mxCell id="niYCIoyhiS-1OoNlzdVk-199" value="" style="rounded=0;whiteSpace=wrap;html=1;labelBackgroundColor=none;fillColor=#ffe6cc;strokeColor=none;" parent="1" vertex="1">
          <mxGeometry x="1880" y="120" width="320" height="1000" as="geometry" />
        </mxCell>
        <mxCell id="niYCIoyhiS-1OoNlzdVk-198" value="" style="rounded=0;whiteSpace=wrap;html=1;labelBackgroundColor=none;fillColor=#fff2cc;strokeColor=none;" parent="1" vertex="1">
          <mxGeometry x="2200" y="120" width="280" height="1000" as="geometry" />
        </mxCell>
        <mxCell id="niYCIoyhiS-1OoNlzdVk-19" value="&lt;div&gt;router01.tra02&lt;/div&gt;" style="sketch=0;points=[[0.5,0,0],[1,0.5,0],[0.5,1,0],[0,0.5,0],[0.145,0.145,0],[0.8555,0.145,0],[0.855,0.8555,0],[0.145,0.855,0]];verticalLabelPosition=bottom;html=1;verticalAlign=top;aspect=fixed;align=center;pointerEvents=1;shape=mxgraph.cisco19.rect;prIcon=router;fillColor=#FAFAFA;strokeColor=#005073;fontSize=14;fontStyle=1" parent="1" vertex="1">
          <mxGeometry x="1120" y="400" width="80" height="80" as="geometry" />
        </mxCell>
        <mxCell id="niYCIoyhiS-1OoNlzdVk-20" value="&lt;div&gt;router02.tra02&lt;/div&gt;" style="sketch=0;points=[[0.5,0,0],[1,0.5,0],[0.5,1,0],[0,0.5,0],[0.145,0.145,0],[0.8555,0.145,0],[0.855,0.8555,0],[0.145,0.855,0]];verticalLabelPosition=bottom;html=1;verticalAlign=top;aspect=fixed;align=center;pointerEvents=1;shape=mxgraph.cisco19.rect;prIcon=router;fillColor=#FAFAFA;strokeColor=#005073;fontSize=14;fontStyle=1" parent="1" vertex="1">
          <mxGeometry x="1320" y="400" width="80" height="80" as="geometry" />
        </mxCell>
        <mxCell id="niYCIoyhiS-1OoNlzdVk-21" value="&lt;div&gt;router1.tra02&lt;/div&gt;" style="sketch=0;points=[[0.5,0,0],[1,0.5,0],[0.5,1,0],[0,0.5,0],[0.145,0.145,0],[0.8555,0.145,0],[0.855,0.8555,0],[0.145,0.855,0]];verticalLabelPosition=bottom;html=1;verticalAlign=top;aspect=fixed;align=center;pointerEvents=1;shape=mxgraph.cisco19.rect;prIcon=router;fillColor=#FAFAFA;strokeColor=#005073;fontSize=14;fontStyle=1" parent="1" vertex="1">
          <mxGeometry x="1220" y="720" width="80" height="80" as="geometry" />
        </mxCell>
        <mxCell id="niYCIoyhiS-1OoNlzdVk-22" value="&lt;div&gt;router01.tra03&lt;/div&gt;" style="sketch=0;points=[[0.5,0,0],[1,0.5,0],[0.5,1,0],[0,0.5,0],[0.145,0.145,0],[0.8555,0.145,0],[0.855,0.8555,0],[0.145,0.855,0]];verticalLabelPosition=bottom;html=1;verticalAlign=top;aspect=fixed;align=center;pointerEvents=1;shape=mxgraph.cisco19.rect;prIcon=router;fillColor=#FAFAFA;strokeColor=#005073;fontSize=14;fontStyle=1" parent="1" vertex="1">
          <mxGeometry x="1640" y="400" width="80" height="80" as="geometry" />
        </mxCell>
        <mxCell id="niYCIoyhiS-1OoNlzdVk-23" value="&lt;div&gt;router01.lab02&lt;/div&gt;&lt;div&gt;&lt;br&gt;&lt;/div&gt;" style="sketch=0;points=[[0.5,0,0],[1,0.5,0],[0.5,1,0],[0,0.5,0],[0.145,0.145,0],[0.8555,0.145,0],[0.855,0.8555,0],[0.145,0.855,0]];verticalLabelPosition=bottom;html=1;verticalAlign=top;aspect=fixed;align=center;pointerEvents=1;shape=mxgraph.cisco19.rect;prIcon=router;fillColor=#FAFAFA;strokeColor=#005073;fontSize=14;fontStyle=1" parent="1" vertex="1">
          <mxGeometry x="2000" y="400" width="80" height="80" as="geometry" />
        </mxCell>
        <mxCell id="niYCIoyhiS-1OoNlzdVk-31" style="edgeStyle=orthogonalEdgeStyle;rounded=0;orthogonalLoop=1;jettySize=auto;html=1;exitX=0;exitY=0.5;exitDx=0;exitDy=0;exitPerimeter=0;endArrow=none;endFill=0;fontSize=14;fontStyle=1" parent="1" source="niYCIoyhiS-1OoNlzdVk-24" target="niYCIoyhiS-1OoNlzdVk-23" edge="1">
          <mxGeometry relative="1" as="geometry" />
        </mxCell>
        <mxCell id="niYCIoyhiS-1OoNlzdVk-24" value="server02.lab02" style="sketch=0;points=[[0.015,0.015,0],[0.985,0.015,0],[0.985,0.985,0],[0.015,0.985,0],[0.25,0,0],[0.5,0,0],[0.75,0,0],[1,0.25,0],[1,0.5,0],[1,0.75,0],[0.75,1,0],[0.5,1,0],[0.25,1,0],[0,0.75,0],[0,0.5,0],[0,0.25,0]];verticalLabelPosition=bottom;html=1;verticalAlign=top;aspect=fixed;align=center;pointerEvents=1;shape=mxgraph.cisco19.server;fillColor=#005073;strokeColor=none;fontSize=14;fontStyle=1" parent="1" vertex="1">
          <mxGeometry x="2320" y="400" width="44" height="80" as="geometry" />
        </mxCell>
        <mxCell id="niYCIoyhiS-1OoNlzdVk-25" value="server01.lab02" style="sketch=0;points=[[0.015,0.015,0],[0.985,0.015,0],[0.985,0.985,0],[0.015,0.985,0],[0.25,0,0],[0.5,0,0],[0.75,0,0],[1,0.25,0],[1,0.5,0],[1,0.75,0],[0.75,1,0],[0.5,1,0],[0.25,1,0],[0,0.75,0],[0,0.5,0],[0,0.25,0]];verticalLabelPosition=bottom;html=1;verticalAlign=top;aspect=fixed;align=center;pointerEvents=1;shape=mxgraph.cisco19.server;fillColor=#005073;strokeColor=none;fontSize=14;fontStyle=1" parent="1" vertex="1">
          <mxGeometry x="2320" y="200" width="44" height="80" as="geometry" />
        </mxCell>
        <mxCell id="niYCIoyhiS-1OoNlzdVk-26" value="server03.lab02" style="sketch=0;points=[[0.015,0.015,0],[0.985,0.015,0],[0.985,0.985,0],[0.015,0.985,0],[0.25,0,0],[0.5,0,0],[0.75,0,0],[1,0.25,0],[1,0.5,0],[1,0.75,0],[0.75,1,0],[0.5,1,0],[0.25,1,0],[0,0.75,0],[0,0.5,0],[0,0.25,0]];verticalLabelPosition=bottom;html=1;verticalAlign=top;aspect=fixed;align=center;pointerEvents=1;shape=mxgraph.cisco19.server;fillColor=#005073;strokeColor=none;fontSize=14;fontStyle=1" parent="1" vertex="1">
          <mxGeometry x="2320" y="600" width="44" height="80" as="geometry" />
        </mxCell>
        <mxCell id="niYCIoyhiS-1OoNlzdVk-30" style="edgeStyle=orthogonalEdgeStyle;rounded=0;orthogonalLoop=1;jettySize=auto;html=1;exitX=0;exitY=0.5;exitDx=0;exitDy=0;exitPerimeter=0;entryX=0.8555;entryY=0.145;entryDx=0;entryDy=0;entryPerimeter=0;endArrow=none;endFill=0;fontSize=14;fontStyle=1" parent="1" source="niYCIoyhiS-1OoNlzdVk-25" target="niYCIoyhiS-1OoNlzdVk-23" edge="1">
          <mxGeometry relative="1" as="geometry">
            <Array as="points">
              <mxPoint x="2120" y="240" />
              <mxPoint x="2120" y="412" />
            </Array>
          </mxGeometry>
        </mxCell>
        <mxCell id="niYCIoyhiS-1OoNlzdVk-32" style="edgeStyle=orthogonalEdgeStyle;rounded=0;orthogonalLoop=1;jettySize=auto;html=1;exitX=0;exitY=0.5;exitDx=0;exitDy=0;exitPerimeter=0;entryX=0.855;entryY=0.8555;entryDx=0;entryDy=0;entryPerimeter=0;endArrow=none;endFill=0;fontSize=14;fontStyle=1" parent="1" source="niYCIoyhiS-1OoNlzdVk-26" target="niYCIoyhiS-1OoNlzdVk-23" edge="1">
          <mxGeometry relative="1" as="geometry">
            <Array as="points">
              <mxPoint x="2120" y="640" />
              <mxPoint x="2120" y="468" />
            </Array>
          </mxGeometry>
        </mxCell>
        <mxCell id="niYCIoyhiS-1OoNlzdVk-33" value="eyeball01.tra02" style="points=[[0.13,0.02,0],[0.5,0,0],[0.87,0.02,0],[0.885,0.4,0],[0.985,0.985,0],[0.5,1,0],[0.015,0.985,0],[0.115,0.4,0]];verticalLabelPosition=bottom;sketch=0;html=1;verticalAlign=top;aspect=fixed;align=center;pointerEvents=1;shape=mxgraph.cisco19.laptop;fillColor=#005073;strokeColor=none;fontSize=14;fontStyle=1" parent="1" vertex="1">
          <mxGeometry x="1202.8600000000001" y="960" width="114.29" height="80" as="geometry" />
        </mxCell>
        <mxCell id="niYCIoyhiS-1OoNlzdVk-35" value="eyeball01.tra03" style="points=[[0.13,0.02,0],[0.5,0,0],[0.87,0.02,0],[0.885,0.4,0],[0.985,0.985,0],[0.5,1,0],[0.015,0.985,0],[0.115,0.4,0]];verticalLabelPosition=bottom;sketch=0;html=1;verticalAlign=top;aspect=fixed;align=center;pointerEvents=1;shape=mxgraph.cisco19.laptop;fillColor=#005073;strokeColor=none;fontSize=14;fontStyle=1" parent="1" vertex="1">
          <mxGeometry x="1622.86" y="640" width="114.29" height="80" as="geometry" />
        </mxCell>
        <mxCell id="niYCIoyhiS-1OoNlzdVk-36" style="edgeStyle=orthogonalEdgeStyle;rounded=0;orthogonalLoop=1;jettySize=auto;html=1;exitX=1;exitY=0.5;exitDx=0;exitDy=0;exitPerimeter=0;entryX=0;entryY=0.5;entryDx=0;entryDy=0;entryPerimeter=0;endArrow=none;endFill=0;fontSize=14;fontStyle=1" parent="1" source="niYCIoyhiS-1OoNlzdVk-22" target="niYCIoyhiS-1OoNlzdVk-23" edge="1">
          <mxGeometry relative="1" as="geometry" />
        </mxCell>
        <mxCell id="niYCIoyhiS-1OoNlzdVk-37" style="edgeStyle=orthogonalEdgeStyle;rounded=0;orthogonalLoop=1;jettySize=auto;html=1;exitX=1;exitY=0.5;exitDx=0;exitDy=0;exitPerimeter=0;entryX=0;entryY=0.5;entryDx=0;entryDy=0;entryPerimeter=0;endArrow=none;endFill=0;fontSize=14;fontStyle=1" parent="1" source="niYCIoyhiS-1OoNlzdVk-20" target="niYCIoyhiS-1OoNlzdVk-22" edge="1">
          <mxGeometry relative="1" as="geometry" />
        </mxCell>
        <mxCell id="niYCIoyhiS-1OoNlzdVk-38" style="edgeStyle=orthogonalEdgeStyle;rounded=0;orthogonalLoop=1;jettySize=auto;html=1;exitX=0.855;exitY=0.8555;exitDx=0;exitDy=0;exitPerimeter=0;entryX=0.145;entryY=0.145;entryDx=0;entryDy=0;entryPerimeter=0;endArrow=none;endFill=0;fontSize=14;fontStyle=1" parent="1" source="niYCIoyhiS-1OoNlzdVk-19" target="niYCIoyhiS-1OoNlzdVk-21" edge="1">
          <mxGeometry relative="1" as="geometry" />
        </mxCell>
        <mxCell id="niYCIoyhiS-1OoNlzdVk-40" style="edgeStyle=orthogonalEdgeStyle;rounded=0;orthogonalLoop=1;jettySize=auto;html=1;exitX=0.145;exitY=0.855;exitDx=0;exitDy=0;exitPerimeter=0;entryX=0.8555;entryY=0.145;entryDx=0;entryDy=0;entryPerimeter=0;endArrow=none;endFill=0;fontSize=14;fontStyle=1" parent="1" source="niYCIoyhiS-1OoNlzdVk-20" target="niYCIoyhiS-1OoNlzdVk-21" edge="1">
          <mxGeometry relative="1" as="geometry" />
        </mxCell>
        <mxCell id="niYCIoyhiS-1OoNlzdVk-41" style="edgeStyle=orthogonalEdgeStyle;rounded=0;orthogonalLoop=1;jettySize=auto;html=1;exitX=1;exitY=0.5;exitDx=0;exitDy=0;exitPerimeter=0;entryX=0;entryY=0.5;entryDx=0;entryDy=0;entryPerimeter=0;endArrow=none;endFill=0;fontSize=14;fontStyle=1" parent="1" source="niYCIoyhiS-1OoNlzdVk-19" target="niYCIoyhiS-1OoNlzdVk-20" edge="1">
          <mxGeometry relative="1" as="geometry" />
        </mxCell>
        <mxCell id="niYCIoyhiS-1OoNlzdVk-42" style="edgeStyle=orthogonalEdgeStyle;rounded=0;orthogonalLoop=1;jettySize=auto;html=1;exitX=1;exitY=0.5;exitDx=0;exitDy=0;exitPerimeter=0;entryX=0;entryY=0.5;entryDx=0;entryDy=0;entryPerimeter=0;endArrow=none;endFill=0;fontSize=14;fontStyle=1" parent="1" source="niYCIoyhiS-1OoNlzdVk-18" target="niYCIoyhiS-1OoNlzdVk-19" edge="1">
          <mxGeometry relative="1" as="geometry" />
        </mxCell>
        <mxCell id="niYCIoyhiS-1OoNlzdVk-47" value="eth1" style="text;html=1;align=right;verticalAlign=bottom;whiteSpace=wrap;rounded=0;spacing=0;spacingLeft=5;spacingRight=5;" parent="1" vertex="1">
          <mxGeometry x="2220" y="220" width="100" height="20" as="geometry" />
        </mxCell>
        <mxCell id="niYCIoyhiS-1OoNlzdVk-48" value="eth1" style="text;html=1;align=right;verticalAlign=bottom;whiteSpace=wrap;rounded=0;spacing=0;spacingLeft=5;spacingRight=5;" parent="1" vertex="1">
          <mxGeometry x="2220" y="420" width="100" height="20" as="geometry" />
        </mxCell>
        <mxCell id="niYCIoyhiS-1OoNlzdVk-49" value="eth1" style="text;html=1;align=right;verticalAlign=bottom;whiteSpace=wrap;rounded=0;spacing=0;spacingLeft=5;spacingRight=5;" parent="1" vertex="1">
          <mxGeometry x="2220" y="620" width="100" height="20" as="geometry" />
        </mxCell>
        <mxCell id="niYCIoyhiS-1OoNlzdVk-50" value="eth1" style="text;html=1;align=left;verticalAlign=bottom;whiteSpace=wrap;rounded=0;spacing=0;spacingLeft=5;spacingRight=5;" parent="1" vertex="1">
          <mxGeometry x="2080" y="392" width="40" height="20" as="geometry" />
        </mxCell>
        <mxCell id="niYCIoyhiS-1OoNlzdVk-51" value="eth2" style="text;html=1;align=left;verticalAlign=bottom;whiteSpace=wrap;rounded=0;spacing=0;spacingLeft=5;spacingRight=5;" parent="1" vertex="1">
          <mxGeometry x="2080" y="420" width="40" height="20" as="geometry" />
        </mxCell>
        <mxCell id="niYCIoyhiS-1OoNlzdVk-52" value="eth3" style="text;html=1;align=left;verticalAlign=bottom;whiteSpace=wrap;rounded=0;spacing=0;spacingLeft=5;spacingRight=5;" parent="1" vertex="1">
          <mxGeometry x="2080" y="448" width="40" height="20" as="geometry" />
        </mxCell>
        <mxCell id="niYCIoyhiS-1OoNlzdVk-57" value="eth4" style="text;html=1;align=right;verticalAlign=bottom;whiteSpace=wrap;rounded=0;spacing=0;spacingLeft=5;spacingRight=5;" parent="1" vertex="1">
          <mxGeometry x="1960" y="420" width="40" height="20" as="geometry" />
        </mxCell>
        <mxCell id="niYCIoyhiS-1OoNlzdVk-59" value="eth2" style="text;html=1;align=right;verticalAlign=bottom;whiteSpace=wrap;rounded=0;spacing=0;spacingLeft=5;spacingRight=5;" parent="1" vertex="1">
          <mxGeometry x="1600" y="420" width="40" height="20" as="geometry" />
        </mxCell>
        <mxCell id="niYCIoyhiS-1OoNlzdVk-60" value="eth1" style="text;html=1;align=left;verticalAlign=bottom;whiteSpace=wrap;rounded=0;spacing=0;spacingLeft=5;spacingRight=5;" parent="1" vertex="1">
          <mxGeometry x="1720" y="420" width="40" height="20" as="geometry" />
        </mxCell>
        <mxCell id="niYCIoyhiS-1OoNlzdVk-61" value="eth1" style="text;html=1;align=left;verticalAlign=bottom;whiteSpace=wrap;rounded=0;spacing=0;spacingLeft=5;spacingRight=5;" parent="1" vertex="1">
          <mxGeometry x="1400" y="420" width="40" height="20" as="geometry" />
        </mxCell>
        <mxCell id="niYCIoyhiS-1OoNlzdVk-62" value="eth2" style="text;html=1;align=left;verticalAlign=bottom;whiteSpace=wrap;rounded=0;spacing=0;spacingLeft=5;spacingRight=5;" parent="1" vertex="1">
          <mxGeometry x="1200" y="420" width="40" height="20" as="geometry" />
        </mxCell>
        <mxCell id="niYCIoyhiS-1OoNlzdVk-63" value="eth2" style="text;html=1;align=right;verticalAlign=bottom;whiteSpace=wrap;rounded=0;spacing=0;spacingLeft=5;spacingRight=5;" parent="1" vertex="1">
          <mxGeometry x="1280" y="420" width="40" height="20" as="geometry" />
        </mxCell>
        <mxCell id="niYCIoyhiS-1OoNlzdVk-64" value="eth1" style="text;html=1;align=right;verticalAlign=bottom;whiteSpace=wrap;rounded=0;spacing=0;spacingLeft=5;spacingRight=5;" parent="1" vertex="1">
          <mxGeometry x="1080" y="420" width="40" height="20" as="geometry" />
        </mxCell>
        <mxCell id="niYCIoyhiS-1OoNlzdVk-65" value="eth3" style="text;html=1;align=left;verticalAlign=bottom;whiteSpace=wrap;rounded=0;spacing=0;spacingLeft=5;spacingRight=5;" parent="1" vertex="1">
          <mxGeometry x="1200" y="448" width="40" height="20" as="geometry" />
        </mxCell>
        <mxCell id="niYCIoyhiS-1OoNlzdVk-66" value="eth3" style="text;html=1;align=right;verticalAlign=bottom;whiteSpace=wrap;rounded=0;spacing=0;spacingLeft=5;spacingRight=5;" parent="1" vertex="1">
          <mxGeometry x="1280" y="448" width="40" height="20" as="geometry" />
        </mxCell>
        <mxCell id="niYCIoyhiS-1OoNlzdVk-67" value="eth1" style="text;html=1;align=right;verticalAlign=bottom;whiteSpace=wrap;rounded=0;spacing=0;spacingLeft=5;spacingRight=5;rotation=90;" parent="1" vertex="1">
          <mxGeometry x="1220" y="690" width="40" height="20" as="geometry" />
        </mxCell>
        <mxCell id="niYCIoyhiS-1OoNlzdVk-68" value="eth2" style="text;html=1;align=right;verticalAlign=bottom;whiteSpace=wrap;rounded=0;spacing=0;spacingLeft=5;spacingRight=5;rotation=90;" parent="1" vertex="1">
          <mxGeometry x="1277.1399999999999" y="690" width="40" height="20" as="geometry" />
        </mxCell>
        <mxCell id="niYCIoyhiS-1OoNlzdVk-73" style="edgeStyle=orthogonalEdgeStyle;rounded=0;orthogonalLoop=1;jettySize=auto;html=1;exitX=1;exitY=0.5;exitDx=0;exitDy=0;exitPerimeter=0;entryX=0.885;entryY=0.4;entryDx=0;entryDy=0;entryPerimeter=0;endArrow=none;endFill=0;" parent="1" source="niYCIoyhiS-1OoNlzdVk-21" target="niYCIoyhiS-1OoNlzdVk-33" edge="1">
          <mxGeometry relative="1" as="geometry">
            <Array as="points">
              <mxPoint x="1340" y="760" />
              <mxPoint x="1340" y="992" />
            </Array>
          </mxGeometry>
        </mxCell>
        <mxCell id="niYCIoyhiS-1OoNlzdVk-75" value="eth1" style="text;html=1;align=left;verticalAlign=bottom;whiteSpace=wrap;rounded=0;spacing=0;spacingLeft=5;spacingRight=5;" parent="1" vertex="1">
          <mxGeometry x="1303" y="972" width="40" height="20" as="geometry" />
        </mxCell>
        <mxCell id="niYCIoyhiS-1OoNlzdVk-79" value="eth3" style="text;html=1;align=left;verticalAlign=bottom;whiteSpace=wrap;rounded=0;spacing=0;spacingLeft=5;spacingRight=5;" parent="1" vertex="1">
          <mxGeometry x="1300" y="740" width="40" height="20" as="geometry" />
        </mxCell>
        <mxCell id="niYCIoyhiS-1OoNlzdVk-89" value="&lt;div&gt;10.2.3.0/30&lt;/div&gt;&lt;div&gt;fc00:a:2::3:0/126&lt;br&gt;&lt;/div&gt;" style="text;html=1;align=center;verticalAlign=top;whiteSpace=wrap;rounded=0;fontSize=10;fontFamily=Verdana;spacing=0;" parent="1" vertex="1">
          <mxGeometry x="2180" y="640" width="80" height="40" as="geometry" />
        </mxCell>
        <mxCell id="niYCIoyhiS-1OoNlzdVk-90" value="&lt;div&gt;.2&lt;/div&gt;&lt;div&gt;:2&lt;br&gt;&lt;/div&gt;" style="text;html=1;align=right;verticalAlign=top;whiteSpace=wrap;rounded=0;fontSize=10;spacingLeft=5;spacingRight=5;fontFamily=Verdana;spacing=0;" parent="1" vertex="1">
          <mxGeometry x="2284" y="640" width="36" height="40" as="geometry" />
        </mxCell>
        <mxCell id="niYCIoyhiS-1OoNlzdVk-91" value="&lt;div&gt;10.2.2.0/30&lt;/div&gt;&lt;div&gt;fc00:a:2::2:0/126&lt;br&gt;&lt;/div&gt;" style="text;html=1;align=center;verticalAlign=top;whiteSpace=wrap;rounded=0;fontSize=10;fontFamily=Verdana;spacing=0;" parent="1" vertex="1">
          <mxGeometry x="2180" y="440" width="80" height="40" as="geometry" />
        </mxCell>
        <mxCell id="niYCIoyhiS-1OoNlzdVk-92" value="&lt;div&gt;.2&lt;/div&gt;&lt;div&gt;:2&lt;br&gt;&lt;/div&gt;" style="text;html=1;align=right;verticalAlign=top;whiteSpace=wrap;rounded=0;fontSize=10;spacingLeft=5;spacingRight=5;fontFamily=Verdana;spacing=0;" parent="1" vertex="1">
          <mxGeometry x="2284" y="440" width="36" height="40" as="geometry" />
        </mxCell>
        <mxCell id="niYCIoyhiS-1OoNlzdVk-93" value="&lt;div&gt;10.2.1.0/30&lt;/div&gt;&lt;div&gt;fc00:a:2::1:0/126&lt;br&gt;&lt;/div&gt;" style="text;html=1;align=center;verticalAlign=top;whiteSpace=wrap;rounded=0;fontSize=10;fontFamily=Verdana;spacing=0;" parent="1" vertex="1">
          <mxGeometry x="2180" y="240" width="80" height="40" as="geometry" />
        </mxCell>
        <mxCell id="niYCIoyhiS-1OoNlzdVk-94" value="&lt;div&gt;.2&lt;/div&gt;&lt;div&gt;:2&lt;br&gt;&lt;/div&gt;" style="text;html=1;align=right;verticalAlign=top;whiteSpace=wrap;rounded=0;fontSize=10;spacingLeft=5;spacingRight=5;fontFamily=Verdana;spacing=0;" parent="1" vertex="1">
          <mxGeometry x="2284" y="240" width="36" height="40" as="geometry" />
        </mxCell>
        <mxCell id="niYCIoyhiS-1OoNlzdVk-95" value="&lt;div&gt;.1 :1&lt;br&gt;&lt;/div&gt;" style="text;html=1;align=left;verticalAlign=bottom;whiteSpace=wrap;rounded=0;fontSize=10;spacingLeft=5;spacingRight=5;fontFamily=Verdana;spacing=0;" parent="1" vertex="1">
          <mxGeometry x="2120" y="392" width="36" height="20" as="geometry" />
        </mxCell>
        <mxCell id="niYCIoyhiS-1OoNlzdVk-97" value="&lt;div&gt;.1 :1&lt;br&gt;&lt;/div&gt;" style="text;html=1;align=left;verticalAlign=top;whiteSpace=wrap;rounded=0;fontSize=10;spacingLeft=5;spacingRight=5;fontFamily=Verdana;spacing=0;" parent="1" vertex="1">
          <mxGeometry x="2120" y="436" width="36" height="20" as="geometry" />
        </mxCell>
        <mxCell id="niYCIoyhiS-1OoNlzdVk-98" value="&lt;div&gt;.1 :1&lt;br&gt;&lt;/div&gt;" style="text;html=1;align=left;verticalAlign=bottom;whiteSpace=wrap;rounded=0;fontSize=10;spacingLeft=5;spacingRight=5;fontFamily=Verdana;spacing=0;" parent="1" vertex="1">
          <mxGeometry x="2120" y="460" width="36" height="20" as="geometry" />
        </mxCell>
        <mxCell id="niYCIoyhiS-1OoNlzdVk-102" value="&lt;div&gt;10.2.255.1/32&lt;/div&gt;&lt;div&gt;fc00:a:2::255:1/128&lt;br&gt;&lt;/div&gt;" style="text;html=1;align=center;verticalAlign=top;whiteSpace=wrap;rounded=0;fontSize=10;fontFamily=Verdana;spacing=0;" parent="1" vertex="1">
          <mxGeometry x="2302" y="300" width="80" height="40" as="geometry" />
        </mxCell>
        <mxCell id="niYCIoyhiS-1OoNlzdVk-103" value="&lt;div&gt;10.2.255.2/32&lt;/div&gt;&lt;div&gt;fc00:a:2::255:2/128&lt;br&gt;&lt;/div&gt;" style="text;html=1;align=center;verticalAlign=top;whiteSpace=wrap;rounded=0;fontSize=10;fontFamily=Verdana;spacing=0;" parent="1" vertex="1">
          <mxGeometry x="2302" y="500" width="80" height="40" as="geometry" />
        </mxCell>
        <mxCell id="niYCIoyhiS-1OoNlzdVk-104" value="&lt;div&gt;10.2.255.3/32&lt;/div&gt;&lt;div&gt;fc00:a:2::255:3/128&lt;br&gt;&lt;/div&gt;" style="text;html=1;align=center;verticalAlign=top;whiteSpace=wrap;rounded=0;fontSize=10;fontFamily=Verdana;spacing=0;" parent="1" vertex="1">
          <mxGeometry x="2302" y="700" width="80" height="40" as="geometry" />
        </mxCell>
        <mxCell id="niYCIoyhiS-1OoNlzdVk-109" value="&lt;div&gt;10.2.254.1/32&lt;/div&gt;&lt;div&gt;fc00:a:2::254:1/128&lt;br&gt;&lt;/div&gt;" style="text;html=1;align=center;verticalAlign=top;whiteSpace=wrap;rounded=0;fontSize=10;fontFamily=Verdana;spacing=0;" parent="1" vertex="1">
          <mxGeometry x="2000" y="500" width="80" height="40" as="geometry" />
        </mxCell>
        <mxCell id="niYCIoyhiS-1OoNlzdVk-110" value="&lt;div&gt;10.103.254.1/32&lt;/div&gt;&lt;div&gt;fc00:b:103::254:1/128&lt;br&gt;&lt;/div&gt;" style="text;html=1;align=center;verticalAlign=top;whiteSpace=wrap;rounded=0;fontSize=10;fontFamily=Verdana;spacing=0;" parent="1" vertex="1">
          <mxGeometry x="1640" y="500" width="80" height="40" as="geometry" />
        </mxCell>
        <mxCell id="niYCIoyhiS-1OoNlzdVk-112" value="&lt;div&gt;10.102.254.1/32&lt;/div&gt;&lt;div&gt;fc00:b:102::254:1/128&lt;br&gt;&lt;/div&gt;" style="text;html=1;align=center;verticalAlign=top;whiteSpace=wrap;rounded=0;fontSize=10;fontFamily=Verdana;spacing=0;" parent="1" vertex="1">
          <mxGeometry x="1120" y="500" width="80" height="40" as="geometry" />
        </mxCell>
        <mxCell id="niYCIoyhiS-1OoNlzdVk-113" value="&lt;div&gt;10.102.254.2/32&lt;/div&gt;&lt;div&gt;fc00:b:102::254:2/128&lt;br&gt;&lt;/div&gt;" style="text;html=1;align=center;verticalAlign=top;whiteSpace=wrap;rounded=0;fontSize=10;fontFamily=Verdana;spacing=0;" parent="1" vertex="1">
          <mxGeometry x="1320" y="500" width="80" height="40" as="geometry" />
        </mxCell>
        <mxCell id="niYCIoyhiS-1OoNlzdVk-114" value="&lt;div&gt;10.102.254.3/32&lt;/div&gt;&lt;div&gt;fc00:b:102::254:3/128&lt;br&gt;&lt;/div&gt;" style="text;html=1;align=center;verticalAlign=top;whiteSpace=wrap;rounded=0;fontSize=10;fontFamily=Verdana;spacing=0;" parent="1" vertex="1">
          <mxGeometry x="1220" y="820" width="80" height="40" as="geometry" />
        </mxCell>
        <mxCell id="niYCIoyhiS-1OoNlzdVk-172" value="&lt;div&gt;10.103.0.0/30&lt;/div&gt;&lt;div&gt;fc00:b:103::0/126&lt;br&gt;&lt;/div&gt;" style="text;html=1;align=center;verticalAlign=top;whiteSpace=wrap;rounded=0;fontSize=10;fontFamily=Verdana;spacing=0;" parent="1" vertex="1">
          <mxGeometry x="1820" y="437" width="80" height="40" as="geometry" />
        </mxCell>
        <mxCell id="niYCIoyhiS-1OoNlzdVk-173" value="&lt;div&gt;.1&lt;/div&gt;&lt;div&gt;:1&lt;br&gt;&lt;/div&gt;" style="text;html=1;align=left;verticalAlign=top;whiteSpace=wrap;rounded=0;fontSize=10;spacingLeft=5;spacingRight=5;fontFamily=Verdana;spacing=0;" parent="1" vertex="1">
          <mxGeometry x="1720" y="437" width="36" height="40" as="geometry" />
        </mxCell>
        <mxCell id="niYCIoyhiS-1OoNlzdVk-174" value="&lt;div&gt;.2&lt;/div&gt;&lt;div&gt;:2&lt;br&gt;&lt;/div&gt;" style="text;html=1;align=right;verticalAlign=top;whiteSpace=wrap;rounded=0;fontSize=10;spacingLeft=5;spacingRight=5;fontFamily=Verdana;spacing=0;" parent="1" vertex="1">
          <mxGeometry x="1964" y="437" width="36" height="40" as="geometry" />
        </mxCell>
        <mxCell id="niYCIoyhiS-1OoNlzdVk-175" style="edgeStyle=orthogonalEdgeStyle;rounded=0;orthogonalLoop=1;jettySize=auto;html=1;exitX=0.145;exitY=0.855;exitDx=0;exitDy=0;exitPerimeter=0;entryX=0.115;entryY=0.4;entryDx=0;entryDy=0;entryPerimeter=0;endArrow=none;endFill=0;" parent="1" source="niYCIoyhiS-1OoNlzdVk-22" target="niYCIoyhiS-1OoNlzdVk-35" edge="1">
          <mxGeometry relative="1" as="geometry">
            <Array as="points">
              <mxPoint x="1600" y="468" />
              <mxPoint x="1600" y="672" />
            </Array>
          </mxGeometry>
        </mxCell>
        <mxCell id="niYCIoyhiS-1OoNlzdVk-176" value="eth3" style="text;html=1;align=right;verticalAlign=bottom;whiteSpace=wrap;rounded=0;spacing=0;spacingLeft=5;spacingRight=5;" parent="1" vertex="1">
          <mxGeometry x="1600" y="447" width="40" height="20" as="geometry" />
        </mxCell>
        <mxCell id="niYCIoyhiS-1OoNlzdVk-177" value="eth1" style="text;html=1;align=right;verticalAlign=bottom;whiteSpace=wrap;rounded=0;spacing=0;spacingLeft=5;spacingRight=5;" parent="1" vertex="1">
          <mxGeometry x="1598" y="652" width="40" height="20" as="geometry" />
        </mxCell>
        <mxCell id="niYCIoyhiS-1OoNlzdVk-179" value="&lt;div&gt;192.168.2.2/24&lt;/div&gt;&lt;div&gt;fc00:b:102::1337:2/64&lt;br&gt;&lt;/div&gt;" style="text;html=1;align=center;verticalAlign=top;whiteSpace=wrap;rounded=0;fontSize=10;fontFamily=Verdana;spacing=0;" parent="1" vertex="1">
          <mxGeometry x="1220" y="1060" width="80" height="40" as="geometry" />
        </mxCell>
        <mxCell id="niYCIoyhiS-1OoNlzdVk-180" value="&lt;div&gt;192.168.3.2/24&lt;/div&gt;&lt;div&gt;fc00:b:103::1337:2/64&lt;br&gt;&lt;/div&gt;" style="text;html=1;align=center;verticalAlign=top;whiteSpace=wrap;rounded=0;fontSize=10;fontFamily=Verdana;spacing=0;" parent="1" vertex="1">
          <mxGeometry x="1640" y="740" width="80" height="40" as="geometry" />
        </mxCell>
        <mxCell id="niYCIoyhiS-1OoNlzdVk-181" value="&lt;div&gt;10.102.103.0/30&lt;/div&gt;&lt;div&gt;fc00:b:102::103:0/126&lt;br&gt;&lt;/div&gt;" style="text;html=1;align=center;verticalAlign=bottom;whiteSpace=wrap;rounded=0;fontSize=10;fontFamily=Verdana;spacing=0;spacingBottom=3;" parent="1" vertex="1">
          <mxGeometry x="1480" y="400" width="80" height="40" as="geometry" />
        </mxCell>
        <mxCell id="niYCIoyhiS-1OoNlzdVk-183" value="&lt;div&gt;10.102.12.0/30&lt;/div&gt;&lt;div&gt;fc00:b:102::12:0/126&lt;br&gt;&lt;/div&gt;" style="text;html=1;align=center;verticalAlign=bottom;whiteSpace=wrap;rounded=0;fontSize=10;fontFamily=Verdana;spacing=0;" parent="1" vertex="1">
          <mxGeometry x="1220" y="360" width="80" height="40" as="geometry" />
        </mxCell>
        <mxCell id="niYCIoyhiS-1OoNlzdVk-184" value="&lt;div&gt;10.102.23.0/30&lt;/div&gt;&lt;div&gt;fc00:b:102::23:0/126&lt;br&gt;&lt;/div&gt;" style="text;html=1;align=center;verticalAlign=top;whiteSpace=wrap;rounded=0;fontSize=10;fontFamily=Verdana;spacing=0;rotation=90;" parent="1" vertex="1">
          <mxGeometry x="1230" y="610" width="80" height="40" as="geometry" />
        </mxCell>
        <mxCell id="niYCIoyhiS-1OoNlzdVk-185" value="&lt;div&gt;10.102.13.0/30&lt;/div&gt;&lt;div&gt;fc00:b:102::13:0/126&lt;br&gt;&lt;/div&gt;" style="text;html=1;align=center;verticalAlign=top;whiteSpace=wrap;rounded=0;fontSize=10;fontFamily=Verdana;spacing=0;rotation=90;" parent="1" vertex="1">
          <mxGeometry x="1170" y="610" width="80" height="40" as="geometry" />
        </mxCell>
        <mxCell id="niYCIoyhiS-1OoNlzdVk-186" value=".1&lt;br&gt;:1" style="text;html=1;align=left;verticalAlign=bottom;whiteSpace=wrap;rounded=0;fontSize=10;fontFamily=Verdana;spacing=0;spacingLeft=5;spacingRight=5;spacingBottom=3;" parent="1" vertex="1">
          <mxGeometry x="1430" y="400" width="40" height="40" as="geometry" />
        </mxCell>
        <mxCell id="niYCIoyhiS-1OoNlzdVk-187" value=".2&lt;br&gt;:2" style="text;html=1;align=right;verticalAlign=bottom;whiteSpace=wrap;rounded=0;fontSize=10;fontFamily=Verdana;spacing=0;spacingLeft=5;spacingRight=5;spacingBottom=3;" parent="1" vertex="1">
          <mxGeometry x="1570" y="400" width="40" height="40" as="geometry" />
        </mxCell>
        <mxCell id="niYCIoyhiS-1OoNlzdVk-188" value="&lt;div&gt;10.102.101.0/30&lt;/div&gt;&lt;div&gt;fc00:b:102::101:0/126&lt;br&gt;&lt;/div&gt;" style="text;html=1;align=center;verticalAlign=bottom;whiteSpace=wrap;rounded=0;fontSize=10;fontFamily=Verdana;spacing=0;spacingBottom=3;" parent="1" vertex="1">
          <mxGeometry x="960" y="400" width="80" height="40" as="geometry" />
        </mxCell>
        <mxCell id="niYCIoyhiS-1OoNlzdVk-190" value=".1&lt;br&gt;:1" style="text;html=1;align=right;verticalAlign=bottom;whiteSpace=wrap;rounded=0;fontSize=10;fontFamily=Verdana;spacing=0;spacingLeft=5;spacingRight=5;spacingBottom=3;" parent="1" vertex="1">
          <mxGeometry x="1050" y="400" width="40" height="40" as="geometry" />
        </mxCell>
        <mxCell id="niYCIoyhiS-1OoNlzdVk-191" value="&lt;div&gt;.1&lt;/div&gt;&lt;div&gt;:1&lt;br&gt;&lt;/div&gt;" style="text;html=1;align=left;verticalAlign=bottom;whiteSpace=wrap;rounded=0;fontSize=10;fontFamily=Verdana;spacing=0;" parent="1" vertex="1">
          <mxGeometry x="1180" y="360" width="40" height="40" as="geometry" />
        </mxCell>
        <mxCell id="niYCIoyhiS-1OoNlzdVk-193" value="&lt;div&gt;.2&lt;/div&gt;&lt;div&gt;:2&lt;br&gt;&lt;/div&gt;" style="text;html=1;align=right;verticalAlign=bottom;whiteSpace=wrap;rounded=0;fontSize=10;fontFamily=Verdana;spacing=0;" parent="1" vertex="1">
          <mxGeometry x="1300" y="360" width="40" height="40" as="geometry" />
        </mxCell>
        <mxCell id="niYCIoyhiS-1OoNlzdVk-194" value="&lt;div&gt;.1&lt;/div&gt;&lt;div&gt;:1&lt;br&gt;&lt;/div&gt;" style="text;html=1;align=left;verticalAlign=top;whiteSpace=wrap;rounded=0;fontSize=10;fontFamily=Verdana;spacing=0;rotation=90;spacingLeft=5;spacingRight=5;" parent="1" vertex="1">
          <mxGeometry x="1190" y="540" width="40" height="40" as="geometry" />
        </mxCell>
        <mxCell id="niYCIoyhiS-1OoNlzdVk-195" value="&lt;div&gt;.2&lt;/div&gt;&lt;div&gt;:2&lt;br&gt;&lt;/div&gt;" style="text;html=1;align=right;verticalAlign=top;whiteSpace=wrap;rounded=0;fontSize=10;fontFamily=Verdana;spacing=0;rotation=90;spacingLeft=5;spacingRight=5;" parent="1" vertex="1">
          <mxGeometry x="1190" y="680" width="40" height="40" as="geometry" />
        </mxCell>
        <mxCell id="niYCIoyhiS-1OoNlzdVk-200" value="" style="rounded=0;whiteSpace=wrap;html=1;labelBackgroundColor=none;fillColor=#fff2cc;strokeColor=none;" parent="1" vertex="1">
          <mxGeometry x="40" y="120" width="280" height="1000" as="geometry" />
        </mxCell>
        <mxCell id="niYCIoyhiS-1OoNlzdVk-196" value="&lt;div&gt;.1&lt;/div&gt;&lt;div&gt;:1&lt;br&gt;&lt;/div&gt;" style="text;html=1;align=left;verticalAlign=top;whiteSpace=wrap;rounded=0;fontSize=10;fontFamily=Verdana;spacing=0;rotation=90;spacingLeft=5;spacingRight=5;" parent="1" vertex="1">
          <mxGeometry x="1248" y="540" width="40" height="40" as="geometry" />
        </mxCell>
        <mxCell id="niYCIoyhiS-1OoNlzdVk-197" value="&lt;div&gt;.2&lt;/div&gt;&lt;div&gt;:2&lt;br&gt;&lt;/div&gt;" style="text;html=1;align=right;verticalAlign=top;whiteSpace=wrap;rounded=0;fontSize=10;fontFamily=Verdana;spacing=0;rotation=90;spacingLeft=5;spacingRight=5;" parent="1" vertex="1">
          <mxGeometry x="1248" y="680" width="40" height="40" as="geometry" />
        </mxCell>
        <mxCell id="niYCIoyhiS-1OoNlzdVk-1" value="&lt;div&gt;router01.lab01&lt;/div&gt;&lt;div&gt;&lt;br&gt;&lt;/div&gt;" style="sketch=0;points=[[0.5,0,0],[1,0.5,0],[0.5,1,0],[0,0.5,0],[0.145,0.145,0],[0.8555,0.145,0],[0.855,0.8555,0],[0.145,0.855,0]];verticalLabelPosition=bottom;html=1;verticalAlign=top;aspect=fixed;align=center;pointerEvents=1;shape=mxgraph.cisco19.rect;prIcon=router;fillColor=#FAFAFA;strokeColor=#005073;fontSize=14;fontStyle=1" parent="1" vertex="1">
          <mxGeometry x="440" y="400" width="80" height="80" as="geometry" />
        </mxCell>
        <mxCell id="niYCIoyhiS-1OoNlzdVk-5" value="server02.lab01" style="sketch=0;points=[[0.015,0.015,0],[0.985,0.015,0],[0.985,0.985,0],[0.015,0.985,0],[0.25,0,0],[0.5,0,0],[0.75,0,0],[1,0.25,0],[1,0.5,0],[1,0.75,0],[0.75,1,0],[0.5,1,0],[0.25,1,0],[0,0.75,0],[0,0.5,0],[0,0.25,0]];verticalLabelPosition=bottom;html=1;verticalAlign=top;aspect=fixed;align=center;pointerEvents=1;shape=mxgraph.cisco19.server;fillColor=#005073;strokeColor=none;fontSize=14;fontStyle=1" parent="1" vertex="1">
          <mxGeometry x="160" y="400" width="44" height="80" as="geometry" />
        </mxCell>
        <mxCell id="niYCIoyhiS-1OoNlzdVk-7" value="eyeball01.tra01" style="points=[[0.13,0.02,0],[0.5,0,0],[0.87,0.02,0],[0.885,0.4,0],[0.985,0.985,0],[0.5,1,0],[0.015,0.985,0],[0.115,0.4,0]];verticalLabelPosition=bottom;sketch=0;html=1;verticalAlign=top;aspect=fixed;align=center;pointerEvents=1;shape=mxgraph.cisco19.laptop;fillColor=#005073;strokeColor=none;fontSize=14;fontStyle=1" parent="1" vertex="1">
          <mxGeometry x="782.86" y="640" width="114.29" height="80" as="geometry" />
        </mxCell>
        <mxCell id="niYCIoyhiS-1OoNlzdVk-10" value="server01.lab01" style="sketch=0;points=[[0.015,0.015,0],[0.985,0.015,0],[0.985,0.985,0],[0.015,0.985,0],[0.25,0,0],[0.5,0,0],[0.75,0,0],[1,0.25,0],[1,0.5,0],[1,0.75,0],[0.75,1,0],[0.5,1,0],[0.25,1,0],[0,0.75,0],[0,0.5,0],[0,0.25,0]];verticalLabelPosition=bottom;html=1;verticalAlign=top;aspect=fixed;align=center;pointerEvents=1;shape=mxgraph.cisco19.server;fillColor=#005073;strokeColor=none;fontSize=14;fontStyle=1" parent="1" vertex="1">
          <mxGeometry x="160" y="200" width="44" height="80" as="geometry" />
        </mxCell>
        <mxCell id="niYCIoyhiS-1OoNlzdVk-11" value="server03.lab01" style="sketch=0;points=[[0.015,0.015,0],[0.985,0.015,0],[0.985,0.985,0],[0.015,0.985,0],[0.25,0,0],[0.5,0,0],[0.75,0,0],[1,0.25,0],[1,0.5,0],[1,0.75,0],[0.75,1,0],[0.5,1,0],[0.25,1,0],[0,0.75,0],[0,0.5,0],[0,0.25,0]];verticalLabelPosition=bottom;html=1;verticalAlign=top;aspect=fixed;align=center;pointerEvents=1;shape=mxgraph.cisco19.server;fillColor=#005073;strokeColor=none;fontSize=14;fontStyle=1" parent="1" vertex="1">
          <mxGeometry x="160" y="600" width="44" height="80" as="geometry" />
        </mxCell>
        <mxCell id="niYCIoyhiS-1OoNlzdVk-15" style="edgeStyle=orthogonalEdgeStyle;rounded=0;orthogonalLoop=1;jettySize=auto;html=1;exitX=1;exitY=0.5;exitDx=0;exitDy=0;exitPerimeter=0;entryX=0.145;entryY=0.145;entryDx=0;entryDy=0;entryPerimeter=0;endArrow=none;endFill=0;fontSize=14;fontStyle=1" parent="1" source="niYCIoyhiS-1OoNlzdVk-10" target="niYCIoyhiS-1OoNlzdVk-1" edge="1">
          <mxGeometry relative="1" as="geometry">
            <Array as="points">
              <mxPoint x="400" y="240" />
              <mxPoint x="400" y="412" />
            </Array>
          </mxGeometry>
        </mxCell>
        <mxCell id="niYCIoyhiS-1OoNlzdVk-16" style="edgeStyle=orthogonalEdgeStyle;rounded=0;orthogonalLoop=1;jettySize=auto;html=1;exitX=1;exitY=0.5;exitDx=0;exitDy=0;exitPerimeter=0;entryX=0.145;entryY=0.855;entryDx=0;entryDy=0;entryPerimeter=0;endArrow=none;endFill=0;fontSize=14;fontStyle=1" parent="1" source="niYCIoyhiS-1OoNlzdVk-11" target="niYCIoyhiS-1OoNlzdVk-1" edge="1">
          <mxGeometry relative="1" as="geometry">
            <Array as="points">
              <mxPoint x="400" y="640" />
              <mxPoint x="400" y="468" />
            </Array>
          </mxGeometry>
        </mxCell>
        <mxCell id="niYCIoyhiS-1OoNlzdVk-17" style="edgeStyle=orthogonalEdgeStyle;rounded=0;orthogonalLoop=1;jettySize=auto;html=1;exitX=1;exitY=0.5;exitDx=0;exitDy=0;exitPerimeter=0;entryX=0;entryY=0.5;entryDx=0;entryDy=0;entryPerimeter=0;endArrow=none;endFill=0;fontSize=14;fontStyle=1" parent="1" source="niYCIoyhiS-1OoNlzdVk-5" target="niYCIoyhiS-1OoNlzdVk-1" edge="1">
          <mxGeometry relative="1" as="geometry" />
        </mxCell>
        <mxCell id="niYCIoyhiS-1OoNlzdVk-18" value="&lt;div&gt;router01.tra01&lt;/div&gt;" style="sketch=0;points=[[0.5,0,0],[1,0.5,0],[0.5,1,0],[0,0.5,0],[0.145,0.145,0],[0.8555,0.145,0],[0.855,0.8555,0],[0.145,0.855,0]];verticalLabelPosition=bottom;html=1;verticalAlign=top;aspect=fixed;align=center;pointerEvents=1;shape=mxgraph.cisco19.rect;prIcon=router;fillColor=#FAFAFA;strokeColor=#005073;fontSize=14;fontStyle=1" parent="1" vertex="1">
          <mxGeometry x="800" y="400" width="80" height="80" as="geometry" />
        </mxCell>
        <mxCell id="niYCIoyhiS-1OoNlzdVk-43" style="edgeStyle=orthogonalEdgeStyle;rounded=0;orthogonalLoop=1;jettySize=auto;html=1;exitX=1;exitY=0.5;exitDx=0;exitDy=0;exitPerimeter=0;entryX=0;entryY=0.5;entryDx=0;entryDy=0;entryPerimeter=0;endArrow=none;endFill=0;fontSize=14;fontStyle=1" parent="1" source="niYCIoyhiS-1OoNlzdVk-1" target="niYCIoyhiS-1OoNlzdVk-18" edge="1">
          <mxGeometry relative="1" as="geometry" />
        </mxCell>
        <mxCell id="niYCIoyhiS-1OoNlzdVk-44" value="eth1" style="text;html=1;align=left;verticalAlign=bottom;whiteSpace=wrap;rounded=0;spacing=0;spacingLeft=5;spacingRight=5;" parent="1" vertex="1">
          <mxGeometry x="204" y="620" width="100" height="20" as="geometry" />
        </mxCell>
        <mxCell id="niYCIoyhiS-1OoNlzdVk-45" value="eth1" style="text;html=1;align=left;verticalAlign=bottom;whiteSpace=wrap;rounded=0;spacing=0;spacingLeft=5;spacingRight=5;" parent="1" vertex="1">
          <mxGeometry x="204" y="420" width="100" height="20" as="geometry" />
        </mxCell>
        <mxCell id="niYCIoyhiS-1OoNlzdVk-46" value="eth1" style="text;html=1;align=left;verticalAlign=bottom;whiteSpace=wrap;rounded=0;spacing=0;spacingLeft=5;spacingRight=5;" parent="1" vertex="1">
          <mxGeometry x="204" y="220" width="100" height="20" as="geometry" />
        </mxCell>
        <mxCell id="niYCIoyhiS-1OoNlzdVk-53" value="eth2" style="text;html=1;align=right;verticalAlign=bottom;whiteSpace=wrap;rounded=0;spacing=0;spacingLeft=5;spacingRight=5;" parent="1" vertex="1">
          <mxGeometry x="400" y="420" width="40" height="20" as="geometry" />
        </mxCell>
        <mxCell id="niYCIoyhiS-1OoNlzdVk-54" value="eth1" style="text;html=1;align=right;verticalAlign=bottom;whiteSpace=wrap;rounded=0;spacing=0;spacingLeft=5;spacingRight=5;" parent="1" vertex="1">
          <mxGeometry x="400" y="392" width="40" height="20" as="geometry" />
        </mxCell>
        <mxCell id="niYCIoyhiS-1OoNlzdVk-55" value="eth3" style="text;html=1;align=right;verticalAlign=bottom;whiteSpace=wrap;rounded=0;spacing=0;spacingLeft=5;spacingRight=5;" parent="1" vertex="1">
          <mxGeometry x="400" y="448" width="40" height="20" as="geometry" />
        </mxCell>
        <mxCell id="niYCIoyhiS-1OoNlzdVk-56" value="eth4" style="text;html=1;align=left;verticalAlign=bottom;whiteSpace=wrap;rounded=0;spacing=0;spacingLeft=5;spacingRight=5;" parent="1" vertex="1">
          <mxGeometry x="520" y="420" width="40" height="20" as="geometry" />
        </mxCell>
        <mxCell id="niYCIoyhiS-1OoNlzdVk-69" value="eth1" style="text;html=1;align=right;verticalAlign=bottom;whiteSpace=wrap;rounded=0;spacing=0;spacingLeft=5;spacingRight=5;" parent="1" vertex="1">
          <mxGeometry x="760" y="420" width="40" height="20" as="geometry" />
        </mxCell>
        <mxCell id="niYCIoyhiS-1OoNlzdVk-70" value="eth2" style="text;html=1;align=left;verticalAlign=bottom;whiteSpace=wrap;rounded=0;spacing=0;spacingLeft=5;spacingRight=5;" parent="1" vertex="1">
          <mxGeometry x="880" y="420" width="40" height="20" as="geometry" />
        </mxCell>
        <mxCell id="niYCIoyhiS-1OoNlzdVk-72" style="edgeStyle=orthogonalEdgeStyle;rounded=0;orthogonalLoop=1;jettySize=auto;html=1;exitX=0.855;exitY=0.8555;exitDx=0;exitDy=0;exitPerimeter=0;entryX=0.885;entryY=0.4;entryDx=0;entryDy=0;entryPerimeter=0;endArrow=none;endFill=0;" parent="1" source="niYCIoyhiS-1OoNlzdVk-18" target="niYCIoyhiS-1OoNlzdVk-7" edge="1">
          <mxGeometry relative="1" as="geometry">
            <Array as="points">
              <mxPoint x="920" y="468" />
              <mxPoint x="920" y="672" />
            </Array>
          </mxGeometry>
        </mxCell>
        <mxCell id="niYCIoyhiS-1OoNlzdVk-76" value="eth1" style="text;html=1;align=left;verticalAlign=bottom;whiteSpace=wrap;rounded=0;spacing=0;spacingLeft=5;spacingRight=5;" parent="1" vertex="1">
          <mxGeometry x="883" y="652" width="40" height="20" as="geometry" />
        </mxCell>
        <mxCell id="niYCIoyhiS-1OoNlzdVk-80" value="eth3" style="text;html=1;align=left;verticalAlign=bottom;whiteSpace=wrap;rounded=0;spacing=0;spacingLeft=5;spacingRight=5;" parent="1" vertex="1">
          <mxGeometry x="880" y="448" width="40" height="20" as="geometry" />
        </mxCell>
        <mxCell id="niYCIoyhiS-1OoNlzdVk-83" value="&lt;div&gt;10.1.1.0/30&lt;/div&gt;&lt;div&gt;fc00:a:1::1:0/126&lt;br&gt;&lt;/div&gt;" style="text;html=1;align=center;verticalAlign=top;whiteSpace=wrap;rounded=0;fontSize=10;fontFamily=Verdana;spacing=0;" parent="1" vertex="1">
          <mxGeometry x="260" y="240" width="80" height="40" as="geometry" />
        </mxCell>
        <mxCell id="niYCIoyhiS-1OoNlzdVk-84" value="&lt;div&gt;.2&lt;/div&gt;&lt;div&gt;:2&lt;br&gt;&lt;/div&gt;" style="text;html=1;align=left;verticalAlign=top;whiteSpace=wrap;rounded=0;fontSize=10;spacingLeft=5;spacingRight=5;fontFamily=Verdana;spacing=0;" parent="1" vertex="1">
          <mxGeometry x="204" y="240" width="36" height="40" as="geometry" />
        </mxCell>
        <mxCell id="niYCIoyhiS-1OoNlzdVk-85" value="&lt;div&gt;10.1.2.0/30&lt;/div&gt;&lt;div&gt;fc00:a:1::2:0/126&lt;br&gt;&lt;/div&gt;" style="text;html=1;align=center;verticalAlign=top;whiteSpace=wrap;rounded=0;fontSize=10;fontFamily=Verdana;spacing=0;" parent="1" vertex="1">
          <mxGeometry x="260" y="440" width="80" height="40" as="geometry" />
        </mxCell>
        <mxCell id="niYCIoyhiS-1OoNlzdVk-86" value="&lt;div&gt;.2&lt;/div&gt;&lt;div&gt;:2&lt;br&gt;&lt;/div&gt;" style="text;html=1;align=left;verticalAlign=top;whiteSpace=wrap;rounded=0;fontSize=10;spacingLeft=5;spacingRight=5;fontFamily=Verdana;spacing=0;" parent="1" vertex="1">
          <mxGeometry x="204" y="440" width="36" height="40" as="geometry" />
        </mxCell>
        <mxCell id="niYCIoyhiS-1OoNlzdVk-87" value="&lt;div&gt;10.1.3.0/30&lt;/div&gt;&lt;div&gt;fc00:a:1::3:0/126&lt;br&gt;&lt;/div&gt;" style="text;html=1;align=center;verticalAlign=top;whiteSpace=wrap;rounded=0;fontSize=10;fontFamily=Verdana;spacing=0;" parent="1" vertex="1">
          <mxGeometry x="260" y="640" width="80" height="40" as="geometry" />
        </mxCell>
        <mxCell id="niYCIoyhiS-1OoNlzdVk-88" value="&lt;div&gt;.2&lt;/div&gt;&lt;div&gt;:2&lt;br&gt;&lt;/div&gt;" style="text;html=1;align=left;verticalAlign=top;whiteSpace=wrap;rounded=0;fontSize=10;spacingLeft=5;spacingRight=5;fontFamily=Verdana;spacing=0;" parent="1" vertex="1">
          <mxGeometry x="204" y="640" width="36" height="40" as="geometry" />
        </mxCell>
        <mxCell id="niYCIoyhiS-1OoNlzdVk-99" value="&lt;div&gt;.1 :1&lt;br&gt;&lt;/div&gt;" style="text;html=1;align=right;verticalAlign=bottom;whiteSpace=wrap;rounded=0;fontSize=10;spacingLeft=5;spacingRight=5;fontFamily=Verdana;spacing=0;" parent="1" vertex="1">
          <mxGeometry x="364" y="392" width="36" height="20" as="geometry" />
        </mxCell>
        <mxCell id="niYCIoyhiS-1OoNlzdVk-100" value="&lt;div&gt;.1 :1&lt;br&gt;&lt;/div&gt;" style="text;html=1;align=right;verticalAlign=top;whiteSpace=wrap;rounded=0;fontSize=10;spacingLeft=5;spacingRight=5;fontFamily=Verdana;spacing=0;" parent="1" vertex="1">
          <mxGeometry x="364" y="436" width="36" height="20" as="geometry" />
        </mxCell>
        <mxCell id="niYCIoyhiS-1OoNlzdVk-101" value="&lt;div&gt;.1 :1&lt;br&gt;&lt;/div&gt;" style="text;html=1;align=right;verticalAlign=bottom;whiteSpace=wrap;rounded=0;fontSize=10;spacingLeft=5;spacingRight=5;fontFamily=Verdana;spacing=0;" parent="1" vertex="1">
          <mxGeometry x="364" y="460" width="36" height="20" as="geometry" />
        </mxCell>
        <mxCell id="niYCIoyhiS-1OoNlzdVk-105" value="&lt;div&gt;10.1.255.1/32&lt;/div&gt;&lt;div&gt;fc00:a:1::255:1/128&lt;br&gt;&lt;/div&gt;" style="text;html=1;align=center;verticalAlign=top;whiteSpace=wrap;rounded=0;fontSize=10;fontFamily=Verdana;spacing=0;" parent="1" vertex="1">
          <mxGeometry x="142" y="300" width="80" height="40" as="geometry" />
        </mxCell>
        <mxCell id="niYCIoyhiS-1OoNlzdVk-106" value="&lt;div&gt;10.1.255.2/32&lt;/div&gt;&lt;div&gt;fc00:a:1::255:2/128&lt;br&gt;&lt;/div&gt;" style="text;html=1;align=center;verticalAlign=top;whiteSpace=wrap;rounded=0;fontSize=10;fontFamily=Verdana;spacing=0;" parent="1" vertex="1">
          <mxGeometry x="142" y="500" width="80" height="40" as="geometry" />
        </mxCell>
        <mxCell id="niYCIoyhiS-1OoNlzdVk-107" value="&lt;div&gt;10.1.255.3/32&lt;/div&gt;&lt;div&gt;fc00:a:1::255:3/128&lt;br&gt;&lt;/div&gt;" style="text;html=1;align=center;verticalAlign=top;whiteSpace=wrap;rounded=0;fontSize=10;fontFamily=Verdana;spacing=0;" parent="1" vertex="1">
          <mxGeometry x="142" y="700" width="80" height="40" as="geometry" />
        </mxCell>
        <mxCell id="niYCIoyhiS-1OoNlzdVk-108" value="&lt;div&gt;10.1.254.1/32&lt;/div&gt;&lt;div&gt;fc00:a:1::254:1/128&lt;br&gt;&lt;/div&gt;" style="text;html=1;align=center;verticalAlign=top;whiteSpace=wrap;rounded=0;fontSize=10;fontFamily=Verdana;spacing=0;" parent="1" vertex="1">
          <mxGeometry x="440" y="500" width="80" height="40" as="geometry" />
        </mxCell>
        <mxCell id="niYCIoyhiS-1OoNlzdVk-111" value="&lt;div&gt;10.101.254.1/32&lt;/div&gt;&lt;div&gt;fc00:b:101::254:1/128&lt;br&gt;&lt;/div&gt;" style="text;html=1;align=center;verticalAlign=top;whiteSpace=wrap;rounded=0;fontSize=10;fontFamily=Verdana;spacing=0;" parent="1" vertex="1">
          <mxGeometry x="800" y="500" width="80" height="40" as="geometry" />
        </mxCell>
        <mxCell id="niYCIoyhiS-1OoNlzdVk-169" value="&lt;div&gt;10.101.0.0/30&lt;/div&gt;&lt;div&gt;fc00:b:101::0/126&lt;br&gt;&lt;/div&gt;" style="text;html=1;align=center;verticalAlign=top;whiteSpace=wrap;rounded=0;fontSize=10;fontFamily=Verdana;spacing=0;" parent="1" vertex="1">
          <mxGeometry x="620" y="437" width="80" height="40" as="geometry" />
        </mxCell>
        <mxCell id="niYCIoyhiS-1OoNlzdVk-170" value="&lt;div&gt;.2&lt;/div&gt;&lt;div&gt;:2&lt;br&gt;&lt;/div&gt;" style="text;html=1;align=left;verticalAlign=top;whiteSpace=wrap;rounded=0;fontSize=10;spacingLeft=5;spacingRight=5;fontFamily=Verdana;spacing=0;" parent="1" vertex="1">
          <mxGeometry x="520" y="437" width="36" height="40" as="geometry" />
        </mxCell>
        <mxCell id="niYCIoyhiS-1OoNlzdVk-171" value="&lt;div&gt;.1&lt;/div&gt;&lt;div&gt;:1&lt;br&gt;&lt;/div&gt;" style="text;html=1;align=right;verticalAlign=top;whiteSpace=wrap;rounded=0;fontSize=10;spacingLeft=5;spacingRight=5;fontFamily=Verdana;spacing=0;" parent="1" vertex="1">
          <mxGeometry x="764" y="437" width="36" height="40" as="geometry" />
        </mxCell>
        <mxCell id="niYCIoyhiS-1OoNlzdVk-178" value="&lt;div&gt;192.168.1.2/24&lt;/div&gt;&lt;div&gt;fc00:b:101::1337:2/64&lt;br&gt;&lt;/div&gt;" style="text;html=1;align=center;verticalAlign=top;whiteSpace=wrap;rounded=0;fontSize=10;fontFamily=Verdana;spacing=0;" parent="1" vertex="1">
          <mxGeometry x="800" y="740" width="80" height="40" as="geometry" />
        </mxCell>
        <mxCell id="niYCIoyhiS-1OoNlzdVk-189" value=".2&lt;br&gt;:2" style="text;html=1;align=left;verticalAlign=bottom;whiteSpace=wrap;rounded=0;fontSize=10;fontFamily=Verdana;spacing=0;spacingLeft=5;spacingRight=5;spacingBottom=3;" parent="1" vertex="1">
          <mxGeometry x="910" y="400" width="40" height="40" as="geometry" />
        </mxCell>
        <mxCell id="niYCIoyhiS-1OoNlzdVk-205" value="OUR POP #1" style="rounded=0;whiteSpace=wrap;html=1;labelBackgroundColor=none;fillColor=#F0D8C0;strokeColor=none;align=center;verticalAlign=middle;fontSize=26;fontStyle=1" parent="1" vertex="1">
          <mxGeometry x="40" y="40" width="600" height="80" as="geometry" />
        </mxCell>
        <mxCell id="niYCIoyhiS-1OoNlzdVk-206" value="OUR POP #2" style="rounded=0;whiteSpace=wrap;html=1;labelBackgroundColor=none;fillColor=#F0D8C0;strokeColor=none;align=center;verticalAlign=middle;fontSize=26;fontStyle=1" parent="1" vertex="1">
          <mxGeometry x="1880" y="40" width="600" height="80" as="geometry" />
        </mxCell>
        <mxCell id="niYCIoyhiS-1OoNlzdVk-207" value="TRANSIT AND EYEBALLS (INTERNET)" style="rounded=0;whiteSpace=wrap;html=1;labelBackgroundColor=none;fillColor=#AAB5C4;strokeColor=none;fillStyle=solid;fontSize=26;fontStyle=1" parent="1" vertex="1">
          <mxGeometry x="640" y="40" width="1240" height="80" as="geometry" />
        </mxCell>
        <mxCell id="niYCIoyhiS-1OoNlzdVk-208" value="&lt;div&gt;&lt;font face=&quot;Verdana&quot; style=&quot;font-size: 26px;&quot;&gt;AS 65001&lt;/font&gt;&lt;/div&gt;&lt;div&gt;&lt;font face=&quot;Verdana&quot;&gt;&lt;br&gt;&lt;/font&gt;&lt;/div&gt;&lt;div&gt;&lt;font style=&quot;font-weight: normal; font-size: 20px;&quot; face=&quot;Verdana&quot;&gt;Our server infrastructure at POP #1 (Private AS)&lt;br&gt;&lt;/font&gt;&lt;/div&gt;" style="text;html=1;align=center;verticalAlign=top;whiteSpace=wrap;rounded=0;fontStyle=1" parent="1" vertex="1">
          <mxGeometry x="40" y="1000" width="280" height="120" as="geometry" />
        </mxCell>
        <mxCell id="niYCIoyhiS-1OoNlzdVk-209" value="&lt;div&gt;&lt;b&gt;Infrastructure&lt;/b&gt;&lt;br&gt;&lt;/div&gt;&lt;div&gt;10.1.0.0/16&lt;/div&gt;&lt;div&gt;fc00:a:1::/48&lt;br&gt;&lt;/div&gt;&lt;div&gt;&lt;br&gt;&lt;/div&gt;&lt;div&gt;&lt;div&gt;&lt;b&gt;Colo-level Anycast&lt;/b&gt;&lt;/div&gt;&lt;div&gt;10.201.0.0/16&lt;/div&gt;&lt;div&gt;fc00:c001:1::/48&lt;/div&gt;&lt;/div&gt;&lt;div&gt;&lt;br&gt;&lt;/div&gt;&lt;div&gt;&lt;b&gt;Global Anycast&lt;/b&gt;&lt;/div&gt;&lt;div&gt;&lt;div&gt;10.200.0.0/16&lt;/div&gt;&lt;div&gt;fc00:910b::/32&lt;br&gt;&lt;/div&gt;&lt;/div&gt;" style="text;html=1;align=center;verticalAlign=middle;whiteSpace=wrap;rounded=0;fontFamily=Verdana;fontSize=18;" parent="1" vertex="1">
          <mxGeometry x="42" y="1120" width="598" height="280" as="geometry" />
        </mxCell>
        <mxCell id="niYCIoyhiS-1OoNlzdVk-210" value="&lt;div&gt;&lt;font face=&quot;Verdana&quot; style=&quot;font-size: 26px;&quot;&gt;AS 1337&lt;/font&gt;&lt;/div&gt;&lt;br&gt;&lt;span style=&quot;font-weight: normal;&quot;&gt;&lt;font style=&quot;font-size: 20px;&quot;&gt;Our global network infrastructure&lt;/font&gt;&lt;/span&gt;" style="text;html=1;align=center;verticalAlign=top;whiteSpace=wrap;rounded=0;fontStyle=1" parent="1" vertex="1">
          <mxGeometry x="320" y="1000" width="320" height="120" as="geometry" />
        </mxCell>
        <mxCell id="niYCIoyhiS-1OoNlzdVk-215" value="" style="rounded=0;whiteSpace=wrap;html=1;labelBackgroundColor=none;fillColor=#EDD6BE;strokeColor=none;" parent="1" vertex="1">
          <mxGeometry x="1880" y="1120" width="600" height="280" as="geometry" />
        </mxCell>
        <mxCell id="niYCIoyhiS-1OoNlzdVk-217" value="&lt;div&gt;&lt;b&gt;Infrastructure&lt;/b&gt;&lt;br&gt;&lt;/div&gt;&lt;div&gt;10.2.0.0/16&lt;/div&gt;&lt;div&gt;fc00:a:2::/48&lt;br&gt;&lt;/div&gt;&lt;div&gt;&lt;br&gt;&lt;/div&gt;&lt;div&gt;&lt;div&gt;&lt;div&gt;&lt;b&gt;Colo-level Anycast&lt;/b&gt;&lt;/div&gt;&lt;div&gt;10.202.0.0/16&lt;/div&gt;&lt;div&gt;fc00:c001:2::/48&lt;/div&gt;&lt;/div&gt;&lt;div&gt;&lt;br&gt;&lt;/div&gt;&lt;div&gt;&lt;b&gt;Global Anycast&lt;/b&gt;&lt;/div&gt;&lt;div&gt;&lt;div&gt;10.200.0.0/16&lt;/div&gt;&lt;div&gt;fc00:910b::/32&lt;/div&gt;&lt;/div&gt;&lt;/div&gt;&lt;div&gt;&lt;div&gt;&lt;/div&gt;&lt;/div&gt;" style="text;html=1;align=center;verticalAlign=middle;whiteSpace=wrap;rounded=0;fontFamily=Verdana;fontSize=18;" parent="1" vertex="1">
          <mxGeometry x="1882" y="1120" width="598" height="280" as="geometry" />
        </mxCell>
        <mxCell id="niYCIoyhiS-1OoNlzdVk-218" value="&lt;font face=&quot;Verdana&quot; style=&quot;font-size: 26px;&quot;&gt;AS 101&lt;/font&gt;" style="text;html=1;align=center;verticalAlign=top;whiteSpace=wrap;rounded=0;fontStyle=1" parent="1" vertex="1">
          <mxGeometry x="640" y="1140" width="360" height="60" as="geometry" />
        </mxCell>
        <mxCell id="niYCIoyhiS-1OoNlzdVk-219" value="&lt;div&gt;&lt;b&gt;Infrastructure&lt;/b&gt;&lt;br&gt;&lt;/div&gt;&lt;div&gt;10.101.0.0/16&lt;/div&gt;&lt;div&gt;fc00:b:101::/48&lt;br&gt;&lt;/div&gt;&lt;div&gt;&lt;b&gt;&lt;br&gt;&lt;/b&gt;&lt;/div&gt;&lt;div&gt;&lt;b&gt;Clients&lt;br&gt;&lt;/b&gt;&lt;/div&gt;&lt;div&gt;192.168.1.0/24&lt;/div&gt;&lt;div&gt;fc00:b:101:beef::0/64&lt;/div&gt;" style="text;html=1;align=center;verticalAlign=middle;whiteSpace=wrap;rounded=0;fontFamily=Verdana;fontSize=18;" parent="1" vertex="1">
          <mxGeometry x="640" y="1200" width="360" height="200" as="geometry" />
        </mxCell>
        <mxCell id="niYCIoyhiS-1OoNlzdVk-220" value="&lt;font face=&quot;Verdana&quot; style=&quot;font-size: 26px;&quot;&gt;AS 102&lt;/font&gt;" style="text;html=1;align=center;verticalAlign=top;whiteSpace=wrap;rounded=0;fontStyle=1" parent="1" vertex="1">
          <mxGeometry x="1000" y="1140" width="520" height="60" as="geometry" />
        </mxCell>
        <mxCell id="niYCIoyhiS-1OoNlzdVk-221" value="&lt;div&gt;&lt;b&gt;Infrastructure&lt;/b&gt;&lt;br&gt;&lt;/div&gt;&lt;div&gt;10.102.0.0/16&lt;/div&gt;&lt;div&gt;fc00:b:102::/48&lt;br&gt;&lt;/div&gt;&lt;div&gt;&lt;b&gt;&lt;br&gt;&lt;/b&gt;&lt;/div&gt;&lt;div&gt;&lt;b&gt;Clients&lt;br&gt;&lt;/b&gt;&lt;/div&gt;&lt;div&gt;192.168.2.0/24&lt;/div&gt;&lt;div&gt;fc00:b:102:beef::0/64&lt;/div&gt;" style="text;html=1;align=center;verticalAlign=middle;whiteSpace=wrap;rounded=0;fontFamily=Verdana;fontSize=18;" parent="1" vertex="1">
          <mxGeometry x="1000" y="1200" width="520" height="200" as="geometry" />
        </mxCell>
        <mxCell id="niYCIoyhiS-1OoNlzdVk-222" value="&lt;font face=&quot;Verdana&quot; style=&quot;font-size: 26px;&quot;&gt;AS 103&lt;/font&gt;" style="text;html=1;align=center;verticalAlign=top;whiteSpace=wrap;rounded=0;fontStyle=1" parent="1" vertex="1">
          <mxGeometry x="1522" y="1140" width="360" height="60" as="geometry" />
        </mxCell>
        <mxCell id="niYCIoyhiS-1OoNlzdVk-223" value="&lt;div&gt;&lt;b&gt;Infrastructure&lt;/b&gt;&lt;br&gt;&lt;/div&gt;&lt;div&gt;10.103.0.0/16&lt;/div&gt;&lt;div&gt;fc00:b:103::/48&lt;br&gt;&lt;/div&gt;&lt;div&gt;&lt;b&gt;&lt;br&gt;&lt;/b&gt;&lt;/div&gt;&lt;div&gt;&lt;b&gt;Clients&lt;br&gt;&lt;/b&gt;&lt;/div&gt;&lt;div&gt;192.168.3.0/24&lt;/div&gt;&lt;div&gt;fc00:b:103:beef::0/64&lt;/div&gt;" style="text;html=1;align=center;verticalAlign=middle;whiteSpace=wrap;rounded=0;fontFamily=Verdana;fontSize=18;" parent="1" vertex="1">
          <mxGeometry x="1522" y="1200" width="360" height="200" as="geometry" />
        </mxCell>
        <mxCell id="oY5gzUvMd00K8Mo1eBLa-1" value="&lt;div&gt;&lt;font face=&quot;Verdana&quot; style=&quot;font-size: 26px;&quot;&gt;AS 1337&lt;/font&gt;&lt;/div&gt;&lt;br&gt;&lt;span style=&quot;font-weight: normal;&quot;&gt;&lt;font style=&quot;font-size: 20px;&quot;&gt;Our global network infrastructure&lt;/font&gt;&lt;/span&gt;" style="text;html=1;align=center;verticalAlign=top;whiteSpace=wrap;rounded=0;fontStyle=1" parent="1" vertex="1">
          <mxGeometry x="1880" y="1000" width="320" height="120" as="geometry" />
        </mxCell>
        <mxCell id="oY5gzUvMd00K8Mo1eBLa-2" value="&lt;div&gt;&lt;font face=&quot;Verdana&quot; style=&quot;font-size: 26px;&quot;&gt;AS 65002&lt;/font&gt;&lt;/div&gt;&lt;div&gt;&lt;font face=&quot;Verdana&quot;&gt;&lt;br&gt;&lt;/font&gt;&lt;/div&gt;&lt;div&gt;&lt;font style=&quot;font-weight: normal; font-size: 20px;&quot; face=&quot;Verdana&quot;&gt;Our server infrastructure at POP #2 (Private AS)&lt;br&gt;&lt;/font&gt;&lt;/div&gt;" style="text;html=1;align=center;verticalAlign=top;whiteSpace=wrap;rounded=0;fontStyle=1" parent="1" vertex="1">
          <mxGeometry x="2200" y="1000" width="280" height="120" as="geometry" />
        </mxCell>
      </root>
    </mxGraphModel>
  </diagram>
</mxfile>
